<svg width="58" height="24" viewBox="0 0 58 24" fill="none" xmlns="http://www.w3.org/2000/svg">
<path d="M8.77227 19.3547C6.47926 19.3547 4.85652 17.3156 4.85652 14.3739C4.85652 10.9977 6.12649 9.29292 8.80755 9.29292C11.3475 9.29292 12.6527 11.0646 12.6527 14.6414C12.6527 17.4159 10.9594 19.3547 8.77227 19.3547ZM16.9918 22.4635V0H12.4764V8.15638C11.1711 6.41813 9.47781 5.58244 7.32591 5.58244C2.84573 5.58244 0.199951 9.09235 0.199951 14.0731C0.199951 19.6221 3.33961 22.898 7.71396 22.898C9.83058 22.898 11.4533 22.1292 12.5469 20.4578L12.5822 22.4635H16.9918Z" fill="#25282D"/>
<path d="M27.5551 19.2544C24.7682 19.2544 23.3571 17.583 23.3571 14.2402C23.3571 10.8975 24.7682 9.25949 27.5551 9.25949C30.342 9.25949 31.7531 10.8975 31.7531 14.2402C31.7531 17.583 30.342 19.2544 27.5551 19.2544ZM27.5551 22.898C32.9525 22.898 36.3743 19.455 36.3743 14.2402C36.3743 8.99207 32.9878 5.58244 27.5551 5.58244C22.0519 5.58244 18.63 9.0255 18.63 14.2402C18.63 19.3547 21.946 22.898 27.5551 22.898Z" fill="#25282D"/>
<path d="M47.8769 15.9116C47.8769 17.9507 47.0302 19.1207 45.1958 19.1207C43.3261 19.1207 42.55 17.9173 42.55 15.8448V9.09235H52.1454V6.017H42.55V1.57111H38.0346V16.2793C38.0346 19.8227 40.0454 22.898 45.1253 22.898C50.0288 22.898 52.1454 19.7892 52.1454 16.3128V11.6329H47.8769V15.9116Z" fill="#25282D"/>
<path d="M27.5551 19.2544C24.7682 19.2544 23.3571 17.583 23.3571 14.2402C23.3571 10.8975 24.7682 9.25949 27.5551 9.25949C30.342 9.25949 31.7531 10.8975 31.7531 14.2402C31.7531 17.583 30.342 19.2544 27.5551 19.2544Z" fill="#00EED5"/>
<path d="M57.8002 21.3333C57.8002 22.806 56.5368 23.9999 54.9782 23.9999C53.4197 23.9999 52.1562 22.806 52.1562 21.3333C52.1562 19.8607 53.4197 18.6668 54.9782 18.6668C56.5368 18.6668 57.8002 19.8607 57.8002 21.3333Z" fill="#25282D"/>
</svg>
